<?xml version="1.0" encoding="utf-8"?>
<!-- Generator: Adobe Illustrator 27.1.0, SVG Export Plug-In . SVG Version: 6.00 Build 0)  -->
<svg version="1.1" id="Capa_1" xmlns="http://www.w3.org/2000/svg" xmlns:xlink="http://www.w3.org/1999/xlink" x="0px" y="0px"
	 viewBox="0 0 500 500" style="enable-background:new 0 0 500 500;" xml:space="preserve">
<style type="text/css">
	.st0{fill:#FFFFFF;}
	.st1{fill:#D8D8D8;}
	.st2{fill:#D2FFA0;}
	.st3{fill:#27EAA6;}
	.st4{fill:#FFFFFF;filter:url(#Adobe_OpacityMaskFilter);}
	.st5{mask:url(#mask0_42_626_00000137837842769611813950000013570638428885061042_);}
	.st6{fill:#004D43;}
</style>
<g>
	<path class="st0" d="M379.3,121.7h-250v250h250V121.7z"/>
	<path class="st1" d="M137.1,0h225.9C438.6,0,500,61.4,500,137.1v225.9c0,75.7-61.4,137.1-137.1,137.1H137.1
		C61.4,500,0,438.6,0,362.9V137.1C0,61.4,61.4,0,137.1,0z"/>
	<path class="st2" d="M137.1,0h225.9C438.6,0,500,61.4,500,137.1v225.9c0,75.7-61.4,137.1-137.1,137.1H137.1
		C61.4,500,0,438.6,0,362.9V137.1C0,61.4,61.4,0,137.1,0z"/>
	<circle class="st3" cx="125" cy="246.7" r="125"/>
	<circle class="st3" cx="375" cy="246.7" r="125"/>
	<circle class="st3" cx="254.4" cy="125" r="125"/>
	<circle class="st3" cx="254.4" cy="375" r="125"/>
	<defs>
		<filter id="Adobe_OpacityMaskFilter" filterUnits="userSpaceOnUse" x="129.4" y="121.7" width="250" height="250">
			<feColorMatrix  type="matrix" values="1 0 0 0 0  0 1 0 0 0  0 0 1 0 0  0 0 0 1 0"/>
		</filter>
	</defs>
	
		<mask maskUnits="userSpaceOnUse" x="129.4" y="121.7" width="250" height="250" id="mask0_42_626_00000137837842769611813950000013570638428885061042_">
		<path class="st4" d="M379.3,121.7h-250v250h250V121.7z"/>
	</mask>
	<g class="st5">
		<path class="st6" d="M254.3,246.7c69,0,124.9-56,124.9-125C310.2,121.7,254.3,177.7,254.3,246.7z"/>
		<path class="st6" d="M254.4,246.7L254.4,246.7c-0.1,69,55.9,125,124.9,125h0.1C379.3,302.7,323.4,246.7,254.4,246.7z"/>
		<path class="st6" d="M254.3,246.7c0-69-55.9-125-124.9-125C129.4,190.8,185.3,246.7,254.3,246.7z"/>
		<path class="st6" d="M254.3,246.7c-69,0-124.9,56-124.9,125C198.4,371.7,254.3,315.7,254.3,246.7z"/>
	</g>
</g>
</svg>
