<?xml version="1.0" encoding="utf-8"?>
<!-- Generator: Adobe Illustrator 27.1.0, SVG Export Plug-In . SVG Version: 6.00 Build 0)  -->
<svg version="1.1" xmlns="http://www.w3.org/2000/svg" xmlns:xlink="http://www.w3.org/1999/xlink" x="0px" y="0px"
	 viewBox="0 0 516.4 490.2" style="enable-background:new 0 0 516.4 490.2;" xml:space="preserve">
<style type="text/css">
	.st0{fill:none;stroke:#004D43;stroke-width:16;stroke-miterlimit:10;}
	.st1{fill:url(#SVGID_1_);}
	.st2{fill:url(#SVGID_00000167394789258151862680000000262463217438799546_);}
	.st3{fill:url(#SVGID_00000052067198986666231870000002598599661304479931_);}
	.st4{fill:url(#SVGID_00000095310057461682875030000014345372943063256472_);}
	.st5{fill:url(#SVGID_00000180326064199350743750000001069599049594094994_);}
	.st6{fill:url(#SVGID_00000085245248466051305030000011958334801396907446_);}
	.st7{fill:url(#SVGID_00000154384435614215734110000005822285931675387063_);}
</style>
<g id="Capa_1">
</g>
<g id="Capa_11">
	<g id="LINEA_4">
		<path class="st0" d="M533.3,60.6c-1.6-2.9-3.5-5.7-5.5-8.4c-7.3-9.5-16.8-17-29.3-21.2c-52.9-17.9-116.8,9.1-147.3,64.5
			c-16,29-22.8,65.7-14.1,107.9c21.6,105.1-91.2,96.2-91.2,96.2"/>
	</g>
	<g id="PISTILO_2">
		
			<linearGradient id="SVGID_1_" gradientUnits="userSpaceOnUse" x1="610.1754" y1="407.2966" x2="610.1754" y2="214.2808" gradientTransform="matrix(0.3601 0.9329 0.9329 -0.3601 -346.447 -128.1541)">
			<stop  offset="0.4393" style="stop-color:#EBFFF6"/>
			<stop  offset="1" style="stop-color:#1BDBCC"/>
		</linearGradient>
		<path class="st1" d="M253.2,294.3c-9.1-23.6-62.5-39.9-113-20.4C100.5,289.2,80,336.8,73,356.4c-1.8,5,0.4,10.6,5,13.1
			c18.3,9.9,65.5,31.5,105.2,16.1C233.8,366.1,262.3,317.9,253.2,294.3z"/>
	</g>
	<g id="PETALO_2.1">
		<g>
			
				<linearGradient id="SVGID_00000016036043793658609830000005930793926830858657_" gradientUnits="userSpaceOnUse" x1="314.5132" y1="55.3475" x2="314.5132" y2="244.9596" gradientTransform="matrix(-0.2621 0.965 0.965 0.2621 97.0818 -57.1071)">
				<stop  offset="2.770450e-07" style="stop-color:#27EAA6"/>
				<stop  offset="0.2106" style="stop-color:#30EBA6"/>
				<stop  offset="0.8972" style="stop-color:#D2FFA0"/>
			</linearGradient>
			<path style="fill:url(#SVGID_00000016036043793658609830000005930793926830858657_);" d="M70.8,262
				c84.9-42.2,161.3,18,181.2,35.8c2.5,2.2,1.7,6.2-1.3,7.4c-24.9,9.8-117.4,39.7-182.3-29.4C64.3,271.5,65.6,264.6,70.8,262z"/>
		</g>
	</g>
	<g id="PETALO_2.2">
		<g>
			
				<linearGradient id="SVGID_00000121964335952854226980000002042506498414310833_" gradientUnits="userSpaceOnUse" x1="451.3074" y1="142.9859" x2="326.3435" y2="267.9497" gradientTransform="matrix(-0.2621 0.965 0.965 0.2621 97.0818 -57.1071)">
				<stop  offset="2.770450e-07" style="stop-color:#27EAA6"/>
				<stop  offset="0.8659" style="stop-color:#D2FFA0"/>
			</linearGradient>
			<path style="fill:url(#SVGID_00000121964335952854226980000002042506498414310833_);" d="M142.2,447
				c91.2-25.8,107.4-121.7,110.1-148.3c0.3-3.3-2.9-5.8-6-4.6c-25,9.4-113.6,49.5-115.3,144.3C131,444.3,136.6,448.6,142.2,447z"/>
		</g>
	</g>
	<g id="PETALO_2.3">
		<g>
			
				<linearGradient id="SVGID_00000074409499444696108610000008291099464176455315_" gradientUnits="userSpaceOnUse" x1="291.5274" y1="55.8967" x2="291.5274" y2="245.2172" gradientTransform="matrix(-0.2621 0.965 0.965 0.2621 97.0818 -57.1071)">
				<stop  offset="0.286" style="stop-color:#27EAA6"/>
				<stop  offset="0.8765" style="stop-color:#C9FEA0"/>
				<stop  offset="1" style="stop-color:#D2FFA0"/>
			</linearGradient>
			<path style="fill:url(#SVGID_00000074409499444696108610000008291099464176455315_);" d="M83.4,222.7
				c93.2-23.1,154.9,54.2,169.8,75.4c1.7,2.5,0.3,5.9-2.7,6.3c-25.6,4-124,13.5-172.3-69.6C75.5,230.1,78.1,224,83.4,222.7z"/>
		</g>
	</g>
	<g id="PETALO_2.4">
		<g>
			
				<linearGradient id="SVGID_00000046299927812078746940000002903047176743790720_" gradientUnits="userSpaceOnUse" x1="449.9627" y1="168.9462" x2="338.2418" y2="280.6671" gradientTransform="matrix(-0.2621 0.965 0.965 0.2621 97.0818 -57.1071)">
				<stop  offset="2.770450e-07" style="stop-color:#27EAA6"/>
				<stop  offset="0.8659" style="stop-color:#D2FFA0"/>
			</linearGradient>
			<path style="fill:url(#SVGID_00000046299927812078746940000002903047176743790720_);" d="M177.9,467.6
				c84.6-45.6,78.3-144.2,75.1-169.9c-0.4-3-3.7-4.5-6.2-2.9C225.1,309,145.9,368.1,165.9,462C167.1,467.4,173.1,470.2,177.9,467.6z
				"/>
		</g>
	</g>
	<g id="PETALO_2.7">
		<g id="PETALO_2.6">
			<g>
				
					<linearGradient id="SVGID_00000096052888776521070700000001318527203874760074_" gradientUnits="userSpaceOnUse" x1="469.6227" y1="287.713" x2="321.5525" y2="202.2246" gradientTransform="matrix(-0.2621 0.965 0.965 0.2621 97.0818 -57.1071)">
					<stop  offset="2.770450e-07" style="stop-color:#27EAA6"/>
					<stop  offset="1" style="stop-color:#D2FFA0"/>
				</linearGradient>
				<path style="fill:url(#SVGID_00000096052888776521070700000001318527203874760074_);" d="M205.4,476
					c-39-85.7,22.6-159.6,41.5-179.4c2.4-2.5,6.6-1.6,7.8,1.7C263.9,324,290,416.7,219.5,479C215,483,207.9,481.5,205.4,476z"/>
			</g>
		</g>
	</g>
</g>
<g id="PETALO_2.5">
	<g>
		
			<linearGradient id="SVGID_00000122689855984275529670000006448798288795769989_" gradientUnits="userSpaceOnUse" x1="269.2124" y1="126.2951" x2="269.2124" y2="305.0165" gradientTransform="matrix(-0.2621 0.965 0.965 0.2621 97.0818 -57.1071)">
			<stop  offset="2.770450e-07" style="stop-color:#27EAA6"/>
			<stop  offset="0.5101" style="stop-color:#CBFEA0"/>
			<stop  offset="1" style="stop-color:#D2FFA0"/>
		</linearGradient>
		<path style="fill:url(#SVGID_00000122689855984275529670000006448798288795769989_);" d="M98.1,198c28.7,89.7,124,103,151.2,105
			c3.5,0.3,6-3.3,4.7-6.5c-10.5-25.2-53.4-111.4-147.5-110.2C100.5,186.4,96.3,192.2,98.1,198z"/>
	</g>
</g>
</svg>
