<?xml version="1.0" encoding="utf-8"?>
<!-- Generator: Adobe Illustrator 27.1.0, SVG Export Plug-In . SVG Version: 6.00 Build 0)  -->
<svg version="1.1" xmlns="http://www.w3.org/2000/svg" xmlns:xlink="http://www.w3.org/1999/xlink" x="0px" y="0px"
	 viewBox="0 0 516.4 490.2" style="enable-background:new 0 0 516.4 490.2;" xml:space="preserve">
<style type="text/css">
	.st0{fill:none;stroke:#004D43;stroke-width:16;stroke-miterlimit:10;}
	.st1{fill:url(#SVGID_1_);}
	.st2{fill:url(#SVGID_00000152251186458895280900000012492415258812437890_);}
	.st3{fill:url(#SVGID_00000012464278763003629800000018247478191794137248_);}
	.st4{fill:url(#SVGID_00000150068614628332664350000001011357652170987185_);}
	.st5{fill:url(#SVGID_00000027574373263059584770000007056626802860407481_);}
	.st6{fill:url(#SVGID_00000115483004983350844650000001905971497227558557_);}
	.st7{fill:url(#SVGID_00000045580400069960227350000007887811931538961301_);}
</style>
<g id="Capa_11">
	<g id="LINEA_4">
		<path class="st0" d="M-16.7,385c-3.4-55.7,62.3-95,124.4-99c33-2.2,69.4-4.8,107.8,14.7c95.8,48.4,116.8-62.8,116.8-62.8"/>
	</g>
	<g id="PISTILO_2">
		
			<linearGradient id="SVGID_1_" gradientUnits="userSpaceOnUse" x1="833.7262" y1="786.1966" x2="833.7262" y2="593.1808" gradientTransform="matrix(0.8059 0.592 -0.592 0.8059 118.8994 -883.544)">
			<stop  offset="0.4393" style="stop-color:#EBFFF6"/>
			<stop  offset="1" style="stop-color:#1BDBCC"/>
		</linearGradient>
		<path class="st1" d="M325.3,243.6c-20.4-15-22.2-70.8,9.9-114.4c25.2-34.3,76.5-41.7,97.2-43.2c5.3-0.4,10.1,3.1,11.3,8.3
			c4.7,20.3,13.2,71.5-12,105.8C399.6,243.7,345.7,258.6,325.3,243.6z"/>
	</g>
	<g id="PETALO_2.1">
		<g>
			
				<linearGradient id="SVGID_00000054237557264028490620000004588699768613501884_" gradientUnits="userSpaceOnUse" x1="341.5844" y1="56.1601" x2="341.5844" y2="245.7722">
				<stop  offset="2.770450e-07" style="stop-color:#27EAA6"/>
				<stop  offset="0.2106" style="stop-color:#30EBA6"/>
				<stop  offset="0.8972" style="stop-color:#D2FFA0"/>
			</linearGradient>
			<path style="fill:url(#SVGID_00000054237557264028490620000004588699768613501884_);" d="M341.9,59.1
				C278.9,130,316.9,219.4,329,243.3c1.5,2.9,5.5,3.3,7.5,0.7c16-21.4,69-102.9,19.4-183.6C352.8,55.3,345.8,54.7,341.9,59.1z"/>
		</g>
	</g>
	<g id="PETALO_2.2">
		<g>
			
				<linearGradient id="SVGID_00000066488794325389640570000014464882897074337722_" gradientUnits="userSpaceOnUse" x1="478.3787" y1="143.7984" x2="353.4148" y2="268.7623">
				<stop  offset="2.770450e-07" style="stop-color:#27EAA6"/>
				<stop  offset="0.8659" style="stop-color:#D2FFA0"/>
			</linearGradient>
			<path style="fill:url(#SVGID_00000066488794325389640570000014464882897074337722_);" d="M501.7,176.5
				c-48.8,81.3-145.5,71.7-171.9,67.4c-3.3-0.5-4.8-4.3-2.9-7c15.7-21.7,77.5-96.6,169.4-73.4C502,164.9,504.7,171.5,501.7,176.5z"
				/>
		</g>
	</g>
	<g id="PETALO_2.3">
		<g>
			
				<linearGradient id="SVGID_00000036954989732994862660000003106288641466374795_" gradientUnits="userSpaceOnUse" x1="318.5988" y1="56.7093" x2="318.5988" y2="246.0298">
				<stop  offset="0.286" style="stop-color:#27EAA6"/>
				<stop  offset="0.8765" style="stop-color:#C9FEA0"/>
				<stop  offset="1" style="stop-color:#D2FFA0"/>
			</linearGradient>
			<path style="fill:url(#SVGID_00000036954989732994862660000003106288641466374795_);" d="M300.7,60.9
				c-46.7,83.9,11.7,163.7,28.3,183.6c1.9,2.3,5.6,1.8,6.8-0.9c10.6-23.6,45.5-116.1-22-184.5C309.9,55.2,303.4,56.1,300.7,60.9z"/>
		</g>
	</g>
	<g id="PETALO_2.4">
		<g>
			
				<linearGradient id="SVGID_00000047055367942976851930000014999562679613700249_" gradientUnits="userSpaceOnUse" x1="477.034" y1="169.7588" x2="365.3131" y2="281.4797">
				<stop  offset="2.770450e-07" style="stop-color:#27EAA6"/>
				<stop  offset="0.8659" style="stop-color:#D2FFA0"/>
			</linearGradient>
			<path style="fill:url(#SVGID_00000047055367942976851930000014999562679613700249_);" d="M512.2,216.3
				c-66.1,69.7-159.7,37.8-183.7,27.9c-2.8-1.1-3.4-4.8-1.2-6.8c19.4-17.2,97.2-78.1,182.6-34.2C514.9,205.8,516,212.4,512.2,216.3z
				"/>
		</g>
	</g>
	<g id="PETALO_2.7">
		<g id="PETALO_2.6">
			<g>
				
					<linearGradient id="SVGID_00000079472487056074365050000000748271292253355395_" gradientUnits="userSpaceOnUse" x1="496.694" y1="288.5256" x2="348.6237" y2="203.0372">
					<stop  offset="2.770450e-07" style="stop-color:#27EAA6"/>
					<stop  offset="1" style="stop-color:#D2FFA0"/>
				</linearGradient>
				<path style="fill:url(#SVGID_00000079472487056074365050000000748271292253355395_);" d="M513.2,245.1c-72.5-60.1-160-20-184-7
					c-3.1,1.7-3.3,6-0.4,8c22.4,15.6,105,65.1,183.6,13.3C517.4,256.1,517.8,248.9,513.2,245.1z"/>
			</g>
		</g>
	</g>
</g>
<g id="PETALO_2.5">
	<g>
		
			<linearGradient id="SVGID_00000020372783494480182860000017977500377477888185_" gradientUnits="userSpaceOnUse" x1="296.2837" y1="127.1077" x2="296.2837" y2="305.8291">
			<stop  offset="2.770450e-07" style="stop-color:#27EAA6"/>
			<stop  offset="0.5101" style="stop-color:#CBFEA0"/>
			<stop  offset="1" style="stop-color:#D2FFA0"/>
		</linearGradient>
		<path style="fill:url(#SVGID_00000020372783494480182860000017977500377477888185_);" d="M273,68.7c79,51.2,66.9,146.7,61.7,173.5
			c-0.7,3.4-4.7,5-7.5,2.8c-21.6-16.8-93.5-80.7-67.7-171.3C261.2,67.9,267.9,65.4,273,68.7z"/>
	</g>
</g>
</svg>
