<?xml version="1.0" encoding="utf-8"?>
<!-- Generator: Adobe Illustrator 27.1.0, SVG Export Plug-In . SVG Version: 6.00 Build 0)  -->
<svg version="1.1" xmlns="http://www.w3.org/2000/svg" xmlns:xlink="http://www.w3.org/1999/xlink" x="0px" y="0px"
	 viewBox="0 0 516.4 490.2" style="enable-background:new 0 0 516.4 490.2;" xml:space="preserve">
<style type="text/css">
	.st0{fill:none;stroke:#004D43;stroke-width:16;stroke-miterlimit:10;}
	.st1{fill:url(#SVGID_1_);}
	.st2{fill:url(#SVGID_00000054970041210939004690000002572196795515214249_);}
	.st3{fill:url(#SVGID_00000079486401507820377750000009737213707682812093_);}
	.st4{fill:url(#SVGID_00000068678978272494835810000006684213016296773505_);}
	.st5{fill:url(#SVGID_00000060025020333586966710000004405300345182591138_);}
	.st6{fill:url(#SVGID_00000087378147499565728540000016815532428846843838_);}
	.st7{fill:url(#SVGID_00000095318304921901933150000007115232874894412950_);}
</style>
<g id="Capa_1">
</g>
<g id="Capa_11">
	<g id="LINEA_4">
		<path class="st0" d="M-19.1,110.9c51.3-108,211.4-71.5,225.2,3.3c9.4,51.1-5.7,78-6.1,121c-1,107.3,126,62,126,62"/>
	</g>
	<g id="PISTILO_2">
		
			<linearGradient id="SVGID_1_" gradientUnits="userSpaceOnUse" x1="534.8846" y1="400.2323" x2="534.8846" y2="207.2166" gradientTransform="matrix(-0.1739 0.9848 -0.9848 -0.1739 804.8118 -163.5289)">
			<stop  offset="0.4393" style="stop-color:#EBFFF6"/>
			<stop  offset="1" style="stop-color:#ED3232"/>
		</linearGradient>
		<path class="st1" d="M317.7,293.5c4.4-24.9,53.6-51.2,106.9-41.8c41.9,7.4,71.2,50.1,81.8,68c2.7,4.6,1.7,10.4-2.4,13.8
			c-16.1,13.2-58.2,43.5-100.2,36.1C350.5,360.2,313.3,318.4,317.7,293.5z"/>
	</g>
	<g id="PETALO_2.1">
		<g>
			
				<linearGradient id="SVGID_00000076582188144126422790000003116300288157277839_" gradientUnits="userSpaceOnUse" x1="258.0155" y1="5.0818" x2="258.0155" y2="194.694" gradientTransform="matrix(0.4429 0.8966 -0.8966 0.4429 383.2358 -8.4831)">
				<stop  offset="2.770450e-07" style="stop-color:#FE5D2F"/>
				<stop  offset="0.2106" style="stop-color:#FE5D2F"/>
				<stop  offset="0.8078" style="stop-color:#D2FFA0"/>
			</linearGradient>
			<path style="fill:url(#SVGID_00000076582188144126422790000003116300288157277839_);" d="M490.4,226.7
				c-91.4-25-154.8,48.7-170.9,70c-2,2.6-0.5,6.4,2.7,7c26.3,4.9,122.8,16.3,173.3-63.9C498.7,234.8,496.1,228.2,490.4,226.7z"/>
		</g>
	</g>
	<g id="PETALO_2.2">
		<g>
			
				<linearGradient id="SVGID_00000012470979583030927260000012635389282241587595_" gradientUnits="userSpaceOnUse" x1="394.8098" y1="92.7202" x2="269.8459" y2="217.6841" gradientTransform="matrix(0.4429 0.8966 -0.8966 0.4429 383.2358 -8.4831)">
				<stop  offset="5.540901e-07" style="stop-color:#FE5D2F"/>
				<stop  offset="0.7542" style="stop-color:#D2FFA0"/>
			</linearGradient>
			<path style="fill:url(#SVGID_00000012470979583030927260000012635389282241587595_);" d="M455.9,421.9
				c-94.5-7.8-128.8-98.7-136.6-124.3c-1-3.2,1.7-6.2,5-5.7c26.4,4.4,121,26.7,140.9,119.4C466.5,417.1,461.8,422.4,455.9,421.9z"/>
		</g>
	</g>
	<g id="PETALO_2.3">
		<g>
			
				<linearGradient id="SVGID_00000111878577114652446410000001873259063724375696_" gradientUnits="userSpaceOnUse" x1="235.0298" y1="5.6311" x2="235.0298" y2="194.9515" gradientTransform="matrix(0.4429 0.8966 -0.8966 0.4429 383.2358 -8.4831)">
				<stop  offset="0.286" style="stop-color:#FE5D2F"/>
				<stop  offset="0.738" style="stop-color:#CCF59A"/>
				<stop  offset="0.8765" style="stop-color:#C9FEA0"/>
				<stop  offset="1" style="stop-color:#D2FFA0"/>
			</linearGradient>
			<path style="fill:url(#SVGID_00000111878577114652446410000001873259063724375696_);" d="M470.5,190.6
				c-95.9-4.7-141.6,83-152.1,106.7c-1.2,2.7,0.9,5.8,3.9,5.7c25.9-1,124.3-10.6,155.7-101.4C479.7,196.3,476,190.8,470.5,190.6z"/>
		</g>
	</g>
	<g id="PETALO_2.4">
		<g>
			
				<linearGradient id="SVGID_00000096027114586061527160000001645292258102872736_" gradientUnits="userSpaceOnUse" x1="393.4651" y1="118.6806" x2="281.7442" y2="230.4015" gradientTransform="matrix(0.4429 0.8966 -0.8966 0.4429 383.2358 -8.4831)">
				<stop  offset="2.823728e-07" style="stop-color:#FE5D2F"/>
				<stop  offset="0.705" style="stop-color:#D2FFA0"/>
			</linearGradient>
			<path style="fill:url(#SVGID_00000096027114586061527160000001645292258102872736_);" d="M424.9,449.1
				c-91.7-28.4-104.6-126.5-106.4-152.3c-0.2-3,2.8-5.2,5.6-4c24,9.8,113.1,52.5,111.5,148.6C435.5,446.8,430.1,450.7,424.9,449.1z"
				/>
		</g>
	</g>
	<g id="PETALO_2.7">
		<g id="PETALO_2.6">
			<g>
				
					<linearGradient id="SVGID_00000166660379858922420510000016992346095127895469_" gradientUnits="userSpaceOnUse" x1="413.1251" y1="237.4474" x2="265.0549" y2="151.959" gradientTransform="matrix(0.4429 0.8966 -0.8966 0.4429 383.2358 -8.4831)">
					<stop  offset="1.438503e-07" style="stop-color:#FE5D2F"/>
					<stop  offset="0.8838" style="stop-color:#D2FFA0"/>
				</linearGradient>
				<path style="fill:url(#SVGID_00000166660379858922420510000016992346095127895469_);" d="M399.5,462.6
					c21.8-91.6-52.9-152.3-75.2-168.1c-2.9-2-6.8-0.3-7.3,3.1c-4,27-11.8,123,69.4,170.6C391.5,471.3,398.1,468.5,399.5,462.6z"/>
			</g>
		</g>
	</g>
</g>
<g id="PETALO_2.5">
	<g>
		
			<linearGradient id="SVGID_00000166659493781063920310000009777455517129824418_" gradientUnits="userSpaceOnUse" x1="212.7148" y1="76.0294" x2="212.7148" y2="254.7509" gradientTransform="matrix(0.4429 0.8966 -0.8966 0.4429 383.2358 -8.4831)">
			<stop  offset="1.438503e-07" style="stop-color:#FE5D2F"/>
			<stop  offset="0.443" style="stop-color:#CBFEA0"/>
			<stop  offset="1" style="stop-color:#D2FFA0"/>
		</linearGradient>
		<path style="fill:url(#SVGID_00000166659493781063920310000009777455517129824418_);" d="M451.3,169.1
			c-10.9,93.5-101.9,125-128.2,132.2c-3.4,0.9-6.5-2-5.8-5.5c5.5-26.7,31-119.6,123.6-136.5C446.8,158.2,452,163.1,451.3,169.1z"/>
	</g>
</g>
</svg>
