<?xml version="1.0" encoding="utf-8"?>
<!-- Generator: Adobe Illustrator 27.1.0, SVG Export Plug-In . SVG Version: 6.00 Build 0)  -->
<svg version="1.1" xmlns="http://www.w3.org/2000/svg" xmlns:xlink="http://www.w3.org/1999/xlink" x="0px" y="0px"
	 viewBox="0 0 516.4 490.2" style="enable-background:new 0 0 516.4 490.2;" xml:space="preserve">
<style type="text/css">
	.st0{fill:none;stroke:#004D43;stroke-width:16;stroke-miterlimit:10;}
	.st1{fill:url(#SVGID_1_);}
	.st2{fill:url(#SVGID_00000070098510055950269930000011512405908488704421_);}
	.st3{fill:url(#SVGID_00000081648567117015329700000010182982713392069800_);}
	.st4{fill:url(#SVGID_00000156576190322467561490000010006117497061964695_);}
	.st5{fill:url(#SVGID_00000058549478126094236030000009483331554407695799_);}
	.st6{fill:url(#SVGID_00000029766939400884371550000010371961630462849703_);}
	.st7{fill:url(#SVGID_00000163072710903230009390000007725806173580614313_);}
</style>
<g id="Capa_1">
</g>
<g id="Capa_11">
	<g id="LINEA_4">
		<path class="st0" d="M575.3,371.3c-84.1,85-173.3,105.7-214.5,57.7c-18.4-21.4-27.2-54.3-12.3-111.8
			c32.9-126.6-147.2-112.9-147.2-112.9"/>
	</g>
	<g id="PISTILO_2">
		
			<linearGradient id="SVGID_1_" gradientUnits="userSpaceOnUse" x1="529.6779" y1="394.1033" x2="529.6779" y2="201.0876" gradientTransform="matrix(0.4896 -0.872 0.872 0.4896 -395.0501 479.2448)">
			<stop  offset="0.4393" style="stop-color:#EBFFF6"/>
			<stop  offset="1" style="stop-color:#CB99FF"/>
		</linearGradient>
		<path class="st1" d="M207.9,210.4c-12.4,22-67.5,30.6-114.7,4.1c-37.1-20.9-50.6-70.8-54.7-91.2c-1-5.2,1.9-10.4,6.9-12.2
			c19.5-7.2,69.3-21.8,106.5-0.9C198.9,136.7,220.2,188.4,207.9,210.4z"/>
	</g>
	<g id="PETALO_2.1">
		<g>
			
				<linearGradient id="SVGID_00000119100236790630434680000016403725702371386504_" gradientUnits="userSpaceOnUse" x1="257.4477" y1="-2.9401" x2="257.4477" y2="186.672" gradientTransform="matrix(-0.1216 -0.9926 0.9926 -0.1216 54.0787 472.2577)">
				<stop  offset="4.155676e-07" style="stop-color:#B8CFFB"/>
				<stop  offset="0.2106" style="stop-color:#B8CFFB"/>
				<stop  offset="0.8078" style="stop-color:#D2FFA0"/>
			</linearGradient>
			<path style="fill:url(#SVGID_00000119100236790630434680000016403725702371386504_);" d="M22.7,216.5
				c78,53.9,162.2,5.2,184.4-9.6c2.7-1.8,2.6-5.9-0.3-7.5c-23.2-13.3-110.5-56-184.6,3.1C17.7,206,17.9,213.1,22.7,216.5z"/>
		</g>
	</g>
	<g id="PETALO_2.2">
		<g>
			
				<linearGradient id="SVGID_00000162336796229148515820000003902268974674162878_" gradientUnits="userSpaceOnUse" x1="394.2419" y1="84.6983" x2="269.2781" y2="209.6621" gradientTransform="matrix(-0.1216 -0.9926 0.9926 -0.1216 54.0787 472.2577)">
				<stop  offset="4.470106e-03" style="stop-color:#B8CFFB"/>
				<stop  offset="0.7542" style="stop-color:#D2FFA0"/>
			</linearGradient>
			<path style="fill:url(#SVGID_00000162336796229148515820000003902268974674162878_);" d="M119.8,43.5
				c86.6,38.6,88.9,135.7,87.8,162.5c-0.1,3.3-3.7,5.3-6.6,3.7c-23.4-12.9-105.4-65.2-93.5-159.2C108.3,44.6,114.5,41.1,119.8,43.5z
				"/>
		</g>
	</g>
	<g id="PETALO_2.3">
		<g>
			
				<linearGradient id="SVGID_00000183928776067584174750000013963812184753206144_" gradientUnits="userSpaceOnUse" x1="234.462" y1="-2.3909" x2="234.462" y2="186.9296" gradientTransform="matrix(-0.1216 -0.9926 0.9926 -0.1216 54.0787 472.2577)">
				<stop  offset="0.286" style="stop-color:#B8CFFB"/>
				<stop  offset="0.738" style="stop-color:#CCF59A"/>
				<stop  offset="0.8765" style="stop-color:#C9FEA0"/>
				<stop  offset="1" style="stop-color:#D2FFA0"/>
			</linearGradient>
			<path style="fill:url(#SVGID_00000183928776067584174750000013963812184753206144_);" d="M29.6,257.1
				c89,36.1,161.1-31.6,178.8-50.4c2.1-2.2,1.1-5.8-1.8-6.7c-24.7-7.6-120.8-31-180.4,44.3C22.8,248.6,24.5,255,29.6,257.1z"/>
		</g>
	</g>
	<g id="PETALO_2.4">
		<g>
			
				<linearGradient id="SVGID_00000145046023803766480640000011360573092166855822_" gradientUnits="userSpaceOnUse" x1="392.8972" y1="110.6586" x2="281.1764" y2="222.3795" gradientTransform="matrix(-0.1216 -0.9926 0.9926 -0.1216 54.0787 472.2577)">
				<stop  offset="2.930284e-07" style="stop-color:#B8CFFB"/>
				<stop  offset="0.705" style="stop-color:#D2FFA0"/>
			</linearGradient>
			<path style="fill:url(#SVGID_00000145046023803766480640000011360573092166855822_);" d="M158.1,28.2
				c77.2,57.2,56.9,153.9,50.1,178.9c-0.8,2.9-4.3,4-6.6,2c-19.4-17.1-89.4-87-56.1-177.1C147.3,26.8,153.7,24.9,158.1,28.2z"/>
		</g>
	</g>
	<g id="PETALO_2.7">
		<g id="PETALO_2.6">
			<g>
				
					<linearGradient id="SVGID_00000078022867933984711220000011873216111653268651_" gradientUnits="userSpaceOnUse" x1="412.5573" y1="229.4255" x2="264.487" y2="143.9371" gradientTransform="matrix(-0.1216 -0.9926 0.9926 -0.1216 54.0787 472.2577)">
					<stop  offset="1.438503e-07" style="stop-color:#B8CFFB"/>
					<stop  offset="0.8838" style="stop-color:#D2FFA0"/>
				</linearGradient>
				<path style="fill:url(#SVGID_00000078022867933984711220000011873216111653268651_);" d="M186.5,23.8
					C135.7,103,186.2,185,202,207.3c2,2.9,6.3,2.6,8-0.5c12.7-24.2,51.8-112.1-9.1-183.9C197,18.3,189.8,18.7,186.5,23.8z"/>
			</g>
		</g>
	</g>
</g>
<g id="PETALO_2.5">
	<g>
		
			<linearGradient id="SVGID_00000007388521417750102230000004385725833300548754_" gradientUnits="userSpaceOnUse" x1="212.147" y1="68.0075" x2="212.147" y2="246.7289" gradientTransform="matrix(-0.1216 -0.9926 0.9926 -0.1216 54.0787 472.2577)">
			<stop  offset="4.469562e-03" style="stop-color:#B8CFFB"/>
			<stop  offset="0.443" style="stop-color:#CBFEA0"/>
			<stop  offset="1" style="stop-color:#D2FFA0"/>
		</linearGradient>
		<path style="fill:url(#SVGID_00000007388521417750102230000004385725833300548754_);" d="M40.6,283.7
			c41.2-84.6,137.5-84.3,164.7-82.3c3.5,0.2,5.5,4.1,3.7,7.1c-14,23.4-68.8,102.6-161.8,88C41.3,295.5,38,289.1,40.6,283.7z"/>
	</g>
</g>
</svg>
