<?xml version="1.0" encoding="utf-8"?>
<!-- Generator: Adobe Illustrator 27.1.0, SVG Export Plug-In . SVG Version: 6.00 Build 0)  -->
<svg version="1.1" id="Capa_1" xmlns="http://www.w3.org/2000/svg" xmlns:xlink="http://www.w3.org/1999/xlink" x="0px" y="0px"
	 viewBox="0 0 580.6 115.7" style="enable-background:new 0 0 580.6 115.7;" xml:space="preserve">
<style type="text/css">
	.st0{clip-path:url(#SVGID_00000028301666595648921410000009606875238424869820_);}
	.st1{fill:#004D43;}
</style>
<g>
	<g>
		<g>
			<defs>
				<rect id="SVGID_1_" x="241.2" y="1.4" width="112" height="112"/>
			</defs>
			<clipPath id="SVGID_00000080178895384189030070000000346262382798533776_">
				<use xlink:href="#SVGID_1_"  style="overflow:visible;"/>
			</clipPath>
			<g style="clip-path:url(#SVGID_00000080178895384189030070000000346262382798533776_);">
				<path class="st1" d="M297.2,57.4c30.9,0,56-25.1,56-56C322.3,1.4,297.2,26.4,297.2,57.4z"/>
				<path class="st1" d="M297.2,57.4L297.2,57.4c0,30.9,25,56,56,56l0,0C353.2,82.4,328.2,57.4,297.2,57.4z"/>
				<path class="st1" d="M297.2,57.4c0-30.9-25.1-56-56-56C241.2,32.3,266.3,57.4,297.2,57.4z"/>
				<path class="st1" d="M297.2,57.4c-30.9,0-56,25.1-56,56C272.2,113.4,297.2,88.3,297.2,57.4z"/>
			</g>
		</g>
	</g>
	<path class="st1" d="M5,7.2L36,6v18c4.2-8,13.6-19,33-19c13,0,25.2,6.4,30.2,18.4c1.4,3.4,2.8,11,2.8,18.8v39.6
		c0,16.2,4,19.6,12.8,20.6v5H82c0.6-6.4,1.4-16.8,1.4-30.2V45.6c0-3.4-0.2-11.4-2-15.6c-3-6.8-10.6-12.4-19.8-12.4
		c-6.2,0-12.8,2.6-17.6,7.2c-7.8,7.4-7.6,19.4-7.6,24.2v34.2c0,14.4,4.4,18.4,13,19.2v5H5v-5c9.2-1,12.8-4.8,12.8-21.4V31.8
		c0-18.6-8-19.2-12.8-19.4C5,12.4,5,7.2,5,7.2z M214.5,83l6.2,6c-8,8.6-20.6,20.6-42.4,20.6c-31.4,0-49.4-24.4-49.4-52
		C128.9,28,149.3,5,178.3,5c19.4,0,32.2,10.8,37,20c6.4,12.4,6.8,25.6,6.6,31.8h-72.8c0.6,33,21.8,40.2,34.6,40.2
		C200.5,97,210.9,86.8,214.5,83z M149.7,46.8h52.8c-0.4-6.2-0.8-13.6-6-21.8c-3-4.6-9.6-9.8-18.6-9.8c-6.2,0-11.8,2.4-16,6
		C152.1,29.6,150.5,40.8,149.7,46.8z"/>
	<path class="st1" d="M371.4,7.2L402.6,6v62.8c0,11.2,0.8,29,21.4,29c8.2,0,14.8-3,20-9.4c5.6-6.8,5.6-17.2,5.6-23.2V33.4
		c0-12.8-1.2-18.8-12.6-21V7.2L468.2,6v74.8c0,10.2,0,20.8,13,21.6v5l-31.2,1.2v-17c-5,9.4-14.8,18-33,18c-11.8,0-25-4.4-30.6-18.6
		c-2.2-5.6-2.4-17.2-2.4-20V35.6c0-12.2,0-22.2-12.6-23.2V7.2z M569.7,11.8v23h-6.6c-0.2-4.4-0.6-9.4-5.6-13.6c-5.2-4.4-12-6-18.8-6
		c-16.4,0-23.2,6.8-23.2,14.4c0,6.8,8.2,11,16,14l15,5.6c16,6,29.8,12.8,29.8,29.8c0,14.6-13.2,30.6-42.4,30.6
		c-16.4,0-27.8-3.6-37-8.8v-24h6.6c0.2,4.2,0.6,8.6,3.6,12.8c6.6,8.8,18.2,10.2,25.4,10.2c15.6,0,25.2-6.8,25.2-16.6
		c0-8.8-7.6-13.2-22.8-18.8l-10.6-3.8C506.1,54,496.9,45.8,496.9,33c0-18.2,20-28,41.2-28C548.9,5,559.7,7.2,569.7,11.8z"/>
</g>
</svg>
