<?xml version="1.0" encoding="utf-8"?>
<!-- Generator: Adobe Illustrator 27.1.0, SVG Export Plug-In . SVG Version: 6.00 Build 0)  -->
<svg version="1.1" id="Capa_6" xmlns="http://www.w3.org/2000/svg" xmlns:xlink="http://www.w3.org/1999/xlink" x="0px" y="0px"
	 viewBox="0 0 100 100" style="enable-background:new 0 0 100 100;" xml:space="preserve">
<style type="text/css">
	.st0{fill:#D2FFA0;}
</style>
<path class="st0" d="M50,50c26.6,0,48.1-21.3,48.1-47.5C71.5,2.5,50,23.8,50,50z"/>
<path class="st0" d="M50,50L50,50c0,26.2,21.5,47.5,48.1,47.5h0C98.1,71.3,76.6,50,50,50z"/>
<path class="st0" d="M50,50C50,23.8,28.4,2.5,1.9,2.5C1.9,28.7,23.4,50,50,50z"/>
<path class="st0" d="M50,50C23.4,50,1.9,71.3,1.9,97.5C28.4,97.5,50,76.2,50,50z"/>
</svg>
