<svg xmlns="http://www.w3.org/2000/svg" version="1.1" xmlns:xlink="http://www.w3.org/1999/xlink" xmlns:svgjs="http://svgjs.dev/svgjs" width="110" height="135"><svg xmlns="http://www.w3.org/2000/svg" version="1.1" viewBox="-5.0 -10.0 110.0 135.0">
 <path d="m49.855 6.168c-24.344-0.054688-44.129 19.633-44.188 43.977-0.054688 24.348 19.633 44.129 43.977 44.188 24.344 0.058594 44.129-19.629 44.184-43.977 0.0625-24.344-19.629-44.129-43.973-44.188zm-8.793 5.0508c-4.375 4.8672-7.7148 10.098-10.281 16.117-3.4336-1.3125-6.6445-2.9336-9.7383-4.9219 5.4375-5.6055 12.398-9.5 20.02-11.195zm-22.742 14.309c3.4766 2.2852 7.0977 4.1406 10.984 5.625-1.9375 5.6016-2.9766 11.18-3.1797 17.102h-16.316c0.41797-8.2734 3.3906-16.215 8.5117-22.727zm0 49.551 0.054688-0.035156c-5.1172-6.4727-8.1055-14.371-8.5547-22.609h16.312c0.22266 5.8906 1.2656 11.438 3.2031 17.008-3.8945 1.4883-7.5273 3.3477-11.016 5.6367zm2.7891 3.0742c-0.019531 0.015625-0.042969 0.027344-0.066406 0.039062l0.0625-0.039062h0.003906c3.0859-1.9766 6.2891-3.5898 9.7109-4.8945 2.5664 5.9805 5.8906 11.188 10.242 16.027-7.5938-1.6914-14.527-5.5586-19.953-11.133zm26.594 12.035c-5.7266-5.2734-9.8828-11.109-12.992-18.242 4.2734-1.2617 8.5391-1.9609 12.992-2.1328v20.375zm0-24.473c-4.9727 0.17969-9.7266 0.96875-14.492 2.4062-1.7891-5.1328-2.7617-10.254-2.9805-15.684h17.473v13.277zm0-17.457h-17.48c0.19922-5.4648 1.1641-10.613 2.9531-15.777 4.7773 1.4453 9.5391 2.2383 14.523 2.4141 0.003906 4.4531 0.003906 8.9062 0.003906 13.363zm0-17.461c-4.4688-0.17188-8.7461-0.875-13.035-2.1445 3.1133-7.1758 7.2812-13.039 13.035-18.336v20.48zm33.477-5.2695c5.1211 6.5117 8.0977 14.453 8.5078 22.73h-16.316c-0.20312-5.9219-1.2383-11.5-3.1797-17.102 3.8906-1.4883 7.5117-3.3438 10.988-5.6289zm-2.7227-3.1133c-3.0938 1.9844-6.3047 3.6094-9.7383 4.9219-2.5703-6.0195-5.9062-11.25-10.281-16.117 7.625 1.6953 14.586 5.5898 20.02 11.195zm-26.66-12.098c5.7539 5.2969 9.9219 11.16 13.035 18.336-4.2891 1.2695-8.5664 1.9727-13.035 2.1445v-20.48zm0 24.578c4.9883-0.17969 9.75-0.96875 14.523-2.4141 1.7891 5.168 2.7539 10.312 2.957 15.777h-17.48v-13.363zm0 17.539h17.473c-0.21875 5.4336-1.1914 10.551-2.9805 15.684-4.7656-1.4375-9.5195-2.2266-14.492-2.4062v-13.277zm0 37.754v-20.375c4.4531 0.17188 8.7188 0.87109 12.992 2.1328-3.1094 7.1328-7.2656 12.969-12.992 18.242zm26.598-12.035c-5.4258 5.5703-12.363 9.4375-19.957 11.129 4.3516-4.8398 7.6797-10.043 10.246-16.027 3.4219 1.3086 6.625 2.9258 9.7109 4.8984l0.0625 0.039062c-0.019531-0.011718-0.042969-0.023437-0.0625-0.039062zm2.7852-3.0742c-3.4883-2.293-7.1172-4.1484-11.016-5.6367 1.9375-5.5664 2.9844-11.117 3.2031-17.008h16.312c-0.45313 8.2383-3.4375 16.137-8.5547 22.609z"></path>
<text x="0.0" y="117.5" font-size="5.0" font-weight="bold" font-family="Arbeit Regular, Helvetica, Arial-Unicode, Arial, Sans-serif" fill="#000000" svgjs:data="{&quot;leading&quot;:&quot;1.3&quot;}">Created by jisangbong</text><text x="0.0" y="122.5" font-size="5.0" font-weight="bold" font-family="Arbeit Regular, Helvetica, Arial-Unicode, Arial, Sans-serif" fill="#000000" svgjs:data="{&quot;leading&quot;:&quot;1.3&quot;}">from Noun Project</text></svg><style>@media (prefers-color-scheme: light) { :root { filter: none; } }
@media (prefers-color-scheme: dark) { :root { filter: none; } }
</style></svg>