<?xml version="1.0" encoding="UTF-8"?>
<svg xmlns="http://www.w3.org/2000/svg" version="1.1" viewBox="0 0 100 125">
  <defs>
    <style>
      .cls-1 {
        fill: red;
      }
    </style>
  </defs>
  <!-- Generator: Adobe Illustrator 28.6.0, SVG Export Plug-In . SVG Version: 1.2.0 Build 709)  -->
  <g>
    <g id="Capa_1">
      <path d="M28.8,58.3c.2.2.5.3.8.3s.6-.1.8-.3l4-4,4,4c.2.2.5.3.8.3s.6-.1.8-.3c.4-.4.4-1.1,0-1.6l-4-4,4-4c.4-.4.4-1.1,0-1.6-.4-.4-1.1-.4-1.6,0l-4,4-4-4c-.4-.4-1.1-.4-1.6,0-.4.4-.4,1.1,0,1.6l4,4-4,4c-.4.4-.4,1.1,0,1.6Z"/>
      <path d="M65.6,46.1c-3.7,0-6.7,3-6.7,6.7s3,6.7,6.7,6.7,6.7-3,6.7-6.7-3-6.7-6.7-6.7ZM65.6,57.2c-2.5,0-4.5-2-4.5-4.5s2-4.5,4.5-4.5,4.5,2,4.5,4.5-2,4.5-4.5,4.5Z"/>
      <path d="M65,74.3l-5.3,5.3-5-5-5.6,5.6-4.7-4.7-5,5-5-5-5.7,5.7c-.4.4-.4,1,0,1.3s1,.4,1.3,0l4.3-4.3,5,5,5-5,4.7,4.7,5.6-5.6,5,5,5.3-5.3,5,5c.4.4,1,.4,1.3,0s.4-1,0-1.3l-6.3-6.3Z"/>
      <path d="M92.4,39.3h-2.5v-1.2c0-9.9-8-17.9-17.9-17.9h-5.8v-2.8c0-3.5-3.4-6.4-7.6-6.4h-6.9v-4.5h10.9c.5,2.5,2.7,4.3,5.3,4.3s5.4-2.4,5.4-5.4-2.4-5.4-5.4-5.4-4.1,1.3-4.9,3.2h-14.5v7.8h-6.9c-4.2,0-7.6,2.9-7.6,6.4v2.8h-5.8c-9.9,0-17.9,8-17.9,17.9v1.2h-2.5c-3.5,0-6.4,3.4-6.4,7.6v17c0,4.2,2.9,7.6,6.4,7.6h2.5v10.4c0,9.9,8,17.9,17.9,17.9h43.9c9.9,0,17.9-8,17.9-17.9v-10.4h2.5c3.5,0,6.4-3.4,6.4-7.6v-17c0-4.2-2.9-7.6-6.4-7.6ZM67.8,2.2c1.8,0,3.2,1.5,3.2,3.2s-1.4,3.2-3.2,3.2-3.2-1.4-3.2-3.2,1.5-3.2,3.2-3.2ZM37.1,17.4c0-2,2-3.7,4.4-3.7h17c2.4,0,4.4,1.7,4.4,3.7v2.8h-25.9v-2.8ZM7.6,68.4c-2,0-3.7-2-3.7-4.4v-17c0-2.4,1.7-4.4,3.7-4.4h2.5v25.9h-2.5ZM86.6,82.1c0,8.1-6.6,14.7-14.7,14.7H28c-8.1,0-14.7-6.6-14.7-14.7v-43.9c0-8.1,6.6-14.7,14.7-14.7h43.9c8.1,0,14.7,6.6,14.7,14.7v43.9h0ZM96.1,64c0,2.4-1.7,4.4-3.7,4.4h-2.5v-25.9h2.5c2,0,3.7,2,3.7,4.4v17Z"/>
      <circle class="cls-1" cx="65.6" cy="52.7" r="4.5"/>
    </g>
  </g>
</svg>